<svg width="160" height="160" viewBox="0 0 160 160" fill="none" xmlns="http://www.w3.org/2000/svg">
<path fill-rule="evenodd" clip-rule="evenodd" d="M120.894 35.1068L120.221 32.8166L108.786 41.9932L107.653 38.8392L94.5137 50.2585L97.7865 50.5517L95.7816 57.8898L106.606 46.217L107.47 49.2758L118.929 38.2528L119.5 40.7728L129.667 27L120.894 35.1068Z" fill="white"/>
<path fill-rule="evenodd" clip-rule="evenodd" d="M65.1215 50.2347L52.0143 38.8392L50.8811 41.9932L39.4381 32.8166L38.7724 35.1068L30 27L40.1672 40.7728L40.7457 38.2528L52.2045 49.2758L53.0604 46.217L63.4732 57.454L61.5951 50.5517L65.1215 50.2347Z" fill="white"/>
<path fill-rule="evenodd" clip-rule="evenodd" d="M63.7347 67.043L53.0604 78.2165L52.2045 75.1498L40.7457 86.1728L40.1672 83.6528L30 97.4256L38.7724 89.3188L39.4381 91.609L50.8811 82.4403L52.0143 85.5943L64.1943 74.809L60.8898 73.7154L63.7347 67.043Z" fill="white"/>
<path fill-rule="evenodd" clip-rule="evenodd" d="M119.499 83.6524L118.929 86.1724L107.47 75.1494L106.606 78.2162L97.4297 68.3105L100.806 76.2588L97.9844 77.186L107.652 85.5939L108.786 82.44L120.221 91.6087L120.894 89.3185L129.667 97.4253L119.499 83.6524Z" fill="white"/>
<path fill-rule="evenodd" clip-rule="evenodd" d="M108.596 128.663L107.137 128.703L103.722 128.98L103.278 128.639L103.215 127.102L103.413 125.977L102.898 123.567L103.31 122.395L107.383 122.173L108.183 121.761L108.596 120.461L107.74 119.486L103.88 119.383L103.437 119.05L102.961 117.917L102.922 116.792L103.025 113.202L103.46 112.877L108.104 112.394L108.762 111.974L108.738 111.372L108.073 111.395L107.47 110.484L104.871 110.563L101.915 110.23L100.837 110.841L100.481 111.435L100.069 112.544L100.164 115.548L99.8786 121.341L100.164 130.517L101.043 131.476L109.119 131.31L109.998 130.501L110.109 129.772L109.507 129.02L108.588 128.647L108.596 128.663ZM72.2774 110.326L66.9839 110.349L67.1265 113.234L70.6212 112.885L70.3993 120.461L70.3756 128.362L69.9556 128.75L67.6654 128.988L66.9997 129.574L66.8095 130.707L67.7288 131.595L71.1363 131.516L72.8084 130.565L73.4582 129.249L73.5137 126.587L73.4582 123.781L73.165 119.098L73.7356 117.41L73.8544 114.074L73.1333 111.213L72.2774 110.318V110.326ZM87.0091 111.887L85.0439 111.031L82.8963 110.896L81.8582 111.11L79.1797 112.988L79.2273 114.367L78.5695 115.477L78.7042 119.185L79.5918 122.046L79.6314 122.759L79.0608 124.083L78.9261 126.341L78.4824 127.086L78.9895 129.154L80.305 130.636L82.2465 131.508L84.1801 131.643L85.662 131.278L87.5639 130.073L88.3801 128.528L88.5703 122.933L88.3167 113.384L87.0171 111.887H87.0091ZM85.5193 126.904L84.9725 128.417L84.1088 129.035L81.9533 128.512L81.3193 127.609L81.5967 124.407L81.5254 122.006L81.8186 117.426L81.3431 116.507L81.7314 114.312L82.3971 113.495L84.5208 113.662L85.5986 114.533L85.5114 126.904H85.5193ZM60.4778 119.827L59.4635 120.342V120.738L59.2654 121.317L59.6537 122.252L60.779 122.426L61.8171 123.322L61.9439 127.466L60.7076 128.607L59.2495 129.218L58.5839 128.829L57.728 127.736L57.6171 124.146L57.9737 123.369L57.5299 120.207L57.8707 118.551L57.7439 114.581L58.8216 113.258L60.3193 113.234L61.3733 113.931L62.0786 114.89L63.5288 115.247L64.6224 114.272V113.163L62.9978 111.308L61.508 110.603L59.3525 110.27L58.1163 110.492L56.1907 111.649L54.9782 113.361L54.4473 117.672L55.0258 122.347L54.7009 127.641L55.1842 129.123L56.2541 130.2L58.4175 131.635L61.8171 131.579L63.719 130.24L64.559 128.132L64.7333 127.007L64.8125 120.826L63.4416 119.756L60.4858 119.819L60.4778 119.827ZM94.5137 128.362L93.2378 127.807L92.382 128.029L91.1378 128.94L90.7257 129.923L91.2012 131.223L92.0888 131.999L94.1571 131.952L95.6786 130.739L95.6548 129.257L94.5137 128.362Z" fill="white"/>
<path fill-rule="evenodd" clip-rule="evenodd" d="M102.746 97.2598C102.785 97.2836 102.793 97.2915 102.825 97.2994C102.389 97.5689 102.112 97.9255 101.858 98.2662C101.834 98.2741 101.826 98.2741 101.795 98.2741C101.692 98.3138 101.604 98.393 101.541 98.4881C101.256 98.4881 100.955 98.4881 100.669 98.4881C100.289 98.4881 99.9085 98.4564 99.5202 98.4009C99.5044 98.3613 99.4806 98.3217 99.441 98.2741C99.4093 98.2504 99.3538 98.2028 99.2667 98.1394C99.1953 98.076 99.124 98.0602 99.021 98.0523C98.0225 96.8002 97.1033 95.4609 96.6436 94.0424C96.6912 94.0424 96.7466 94.0424 96.7863 94.0504C97.1825 93.9077 97.5233 93.7492 97.6897 93.4402C97.65 93.4243 97.6025 93.4006 97.5946 93.3926C98.0146 93.3055 98.3633 93.0439 98.498 92.6477C99.0606 92.4734 99.1953 91.9979 99.2429 91.6096C99.2666 91.6492 99.2825 91.6572 99.3142 91.6889C99.7342 90.9123 100.273 89.8662 100.479 89.0421C100.558 89.0104 100.566 88.0911 100.566 88.0911C101.232 87.4334 97.5787 85.1274 96.5565 82.7104C96.5882 82.7104 96.2157 82.2904 96.2553 82.2983C95.9463 81.0938 94.3138 79.9368 95.5263 78.8591C95.4629 78.8591 95.4233 78.8353 95.3599 78.8194C95.978 78.0904 97.2221 77.3296 97.2617 76.0934C97.2617 76.0062 97.238 75.927 97.2142 75.8477C97.2697 75.7606 97.3014 75.6892 97.2934 75.5704C97.2776 75.4991 97.2617 75.4277 97.2617 75.396C97.2617 75.3485 97.2221 75.3168 97.2142 75.2851C97.341 75.0315 97.5074 74.7304 97.5074 74.3975C97.5074 74.1915 97.4044 73.9855 97.23 73.8191C97.2538 73.724 97.2697 73.613 97.2697 73.5179C97.2697 73.3594 97.2063 73.193 97.1191 73.0345C97.1191 73.0345 97.1191 73.0266 97.1191 73.0107C97.0399 72.7651 96.9606 72.4164 96.707 72.1628V72.1153C96.707 71.8221 96.5882 71.616 96.4772 71.4338C96.5802 71.41 96.6833 71.3704 96.7942 71.3307C97.1825 71.1643 97.2697 70.3323 97.2934 69.9677C97.2934 69.8251 97.2855 69.8409 97.3093 69.7855C97.5074 69.4368 96.5565 67.7409 97.3727 67.8757C97.5074 67.8281 98.5772 69.31 99.7342 69.31C100.059 69.2545 100.099 69.1436 100.376 68.9534C100.661 68.5651 100.796 68.1926 100.677 68.1134C100.384 67.9866 100.059 67.733 99.9799 67.63C99.2746 66.996 98.6089 66.1719 97.9353 65.8708C96.8338 65.3874 97.1191 65.5062 96.5485 65.324C96.921 65.0149 96.6278 64.9277 96.9765 64.4919C97.2459 64.1908 96.8576 63.3587 96.2712 63.3111C96.2078 63.2953 95.7561 63.3349 95.7006 63.3587C94.9716 63.6915 94.3455 63.8104 93.8383 63.7945C93.7036 63.7945 93.6085 63.7628 93.5293 63.6757V63.644C93.561 63.533 93.4738 63.4379 93.3549 63.4062C93.2757 63.3904 93.1806 63.3904 93.0934 63.3904C93.0934 63.3508 93.1093 63.3191 93.1093 63.3191C93.0617 62.5742 92.9349 60.8149 92.9349 60.8149C92.9349 60.8149 93.03 60.4583 93.03 59.9987C93.03 59.7292 92.9904 59.4598 92.9191 59.2458C93.03 59.0874 93.0934 58.8892 93.0776 58.7149C93.0776 58.184 92.6972 57.7164 92.3327 57.3677C92.404 57.2092 92.4516 57.0508 92.4516 56.8843C92.4516 56.2662 91.9602 55.7194 91.2946 55.7194C91.1202 55.7194 90.9459 55.767 90.7636 55.8304C90.4863 55.4659 90.1455 55.2677 89.781 55.2677C89.1787 55.2757 88.735 55.1172 88.4734 55.6243C88.4734 55.6481 88.4655 55.6481 88.4655 55.6481C87.9425 54.7526 87.0312 54.0791 85.6285 52.8587C85.6285 52.8587 84.2417 51.9236 84.218 51.7572C84.4636 51.5353 84.7172 51.2738 84.844 50.8934C84.9629 50.8062 85.0976 50.6874 85.1768 50.4813C85.3829 50.4021 85.5493 50.2832 85.6682 50.1485C85.7078 50.1406 85.7553 50.1406 85.787 50.1168C86.1278 49.9345 86.5795 49.6809 86.7697 49.2134C86.8014 49.1976 86.8251 49.1659 86.841 49.1421C86.9995 48.8489 86.9995 48.6111 87.0233 48.4447C87.364 48.207 87.4591 47.8662 87.4987 47.5809C88.5765 47.5255 89.2897 47.1372 89.8999 46.6617C89.8919 46.63 89.8682 46.5904 89.8602 46.5745C90.6448 46.2576 91.1836 45.5285 91.1836 44.7281C91.1836 44.6172 91.1836 44.5142 91.144 44.3953C91.1757 44.3557 91.1836 44.2764 91.1757 44.2289C91.1757 44.1179 91.1044 44.0387 91.0331 43.9832C90.9934 43.0323 90.8112 41.3364 89.4165 41.2334C89.4165 41.2334 89.4085 41.2493 89.3848 41.2493C89.25 41.1145 89.044 41.0828 88.8697 41.1462C88.7429 41.1225 88.6161 41.1145 88.5051 41.1145C87.6334 41.1304 86.9678 41.4949 86.3576 41.487C86.2387 41.487 86.1436 41.4711 86.0168 41.4632C86.001 41.4553 85.9772 41.4632 85.9534 41.4553V41.4394C84.4636 41.4791 84.9629 40.227 83.8217 40.0685C83.9723 39.8942 84.0595 39.7277 84.0595 39.5217C83.9485 38.5549 82.4429 38.2459 82.0625 37.6277C82.0863 37.5564 82.0863 37.4613 82.0387 37.39C82.0387 37.39 81.9912 37.3266 81.9833 37.3108C81.9516 37.2077 81.9436 37.0968 81.9119 36.9859C81.904 36.8353 81.8327 36.6293 81.7217 36.4866C81.7614 36.4232 81.7851 36.3836 81.7851 36.2964C81.8248 36.2093 81.8327 36.0983 81.8327 35.9953C81.8248 35.2979 81.3255 34.5847 80.8738 34.133C80.8738 34.0934 80.8421 34.0221 80.7866 33.9825C78.8451 32.667 77.5931 32.1836 76.4282 32.1836C75.6595 32.1836 73.8368 32.4847 73.6546 32.5243C71.721 32.976 69.2644 34.4659 68.1867 35.821C67.8855 36.0587 67.624 36.3202 67.3863 36.6134C67.3387 36.653 67.3467 36.7402 67.3863 36.8036C67.0693 37.0493 67.3387 37.6198 66.9267 37.8179C66.3878 37.8576 65.9995 38.1111 65.9995 38.5787C65.9995 38.65 66.0074 38.7293 66.0153 38.8085C66.0074 38.8798 65.9995 38.9353 65.9995 39.0145C65.9995 39.2919 66.1342 39.5693 66.3482 39.7832H66.3402C66.3402 40.0447 66.4353 40.2983 66.6414 40.5043C66.6651 40.9006 66.998 41.1621 67.2436 41.376C67.3229 41.6693 67.5289 41.907 67.7904 42.0734V42.0893C67.8538 42.7945 68.5195 43.0957 68.9791 43.3809C68.884 43.484 68.8761 43.6028 68.9395 43.7296C69.201 44.213 69.4387 44.5379 69.827 44.9342C69.8033 44.9342 69.7874 44.9421 69.7716 44.9659C69.9538 45.6711 70.6116 45.9485 70.5244 46.8757C70.6987 46.844 70.5244 47.2481 70.6987 47.2164C70.675 47.3828 70.4214 47.5096 70.4134 47.6681C70.4531 47.6681 70.4927 47.684 70.5402 47.6998C70.4848 47.7949 70.4293 47.8979 70.4214 48.0247C70.3738 48.0564 70.3263 48.104 70.3025 48.1674C70.2391 48.2466 70.0014 48.4209 69.7716 48.6587C69.6606 48.6191 69.5497 48.6587 69.5101 48.7617C69.0029 49.9028 66.6889 50.6002 66.0708 51.6779C66.055 51.6779 66.0312 51.6779 66.0074 51.6938C65.9757 51.7255 65.9599 51.7968 65.9519 51.8443C65.5478 52.0108 65.3259 52.3991 65.3259 52.7953C65.3259 52.9379 65.3655 53.0885 65.421 53.2311C65.4448 53.247 65.4527 53.247 65.4606 53.247C65.0485 54.9825 65.6587 57.0349 66.5304 58.2077L66.5146 58.1998C66.2848 58.2236 66.5304 58.6357 66.5701 58.8417C66.6968 59.8323 66.8316 59.8798 67.2674 60.5851C67.3387 60.704 67.5448 61.2191 67.6636 61.2349C68.4323 63.4538 69.3991 65.4904 70.0648 67.8202C69.9697 67.8836 69.8984 67.9787 69.8825 68.1134C69.8508 68.3194 69.8429 68.5017 69.8429 68.684C69.8429 69.1594 69.9221 69.627 70.0331 70.047H69.9776C70.0568 71.624 69.8984 72.9791 69.5259 74.144C69.5655 74.144 69.1851 74.6591 69.201 74.667C67.2278 79.9685 63.9708 83.9704 61.3874 89.1926C61.3716 89.2164 61.2685 89.6047 61.2685 89.6206C60.587 90.3972 60.2463 91.4987 60.2463 92.5209C60.2463 92.7032 60.278 92.8617 60.3097 93.0202C60.2463 93.0994 60.2067 93.1628 60.2384 93.2579C60.3889 93.8126 60.4206 94.8587 61.4904 95.1202C61.4904 95.1202 61.4851 95.1307 61.4746 95.1519C61.6331 96.079 61.0784 96.3643 60.9991 97.0696H61.0387C60.8327 97.3707 60.6742 97.6956 60.6029 98.0364C60.1353 98.2107 59.8184 98.5594 59.6836 99.019C59.6519 98.9794 59.6123 98.9477 59.5568 98.9081C57.5044 101.84 58.5108 103.821 61.2765 104.899C61.2765 104.923 64.4384 106.143 64.4621 106.159C64.5097 106.175 70.5402 106.817 71.087 106.492C71.9191 106.294 72.9572 105.676 72.9572 105.731C74.1142 105.002 74.2806 104.844 73.8923 103.853H73.8131C73.8606 103.718 73.8923 103.56 73.8923 103.425C73.8923 102.981 73.6942 102.53 73.3376 102.221C73.0919 101.373 72.1727 100.699 71.198 100.675C71.0474 100.675 70.881 100.715 70.7146 100.755C70.6353 100.755 70.5719 100.731 70.5006 100.755C70.0885 100.834 69.4308 100.755 68.8127 101.135C68.567 101.167 68.3372 101.206 68.1233 101.262C67.5289 101.206 67.0297 100.992 66.6334 100.588C66.6017 100.564 66.5621 100.533 66.5304 100.517C66.4591 100.342 66.3878 100.184 66.3244 100.018C66.3482 99.9779 66.3719 99.9304 66.3719 99.8828C66.4116 99.7243 66.3719 99.5817 66.2531 99.4707C66.6176 98.8685 66.9108 98.2424 67.1644 97.6085H67.1961C67.3229 97.6085 67.4497 97.553 67.5289 97.4658C68.0599 97.45 68.4402 97.5847 68.9712 97.5609C69.0108 97.5768 69.0504 97.6005 69.1059 97.6005C69.2644 97.6005 69.3595 97.6322 69.5814 97.6402H69.5972C69.6844 97.6402 69.7557 97.6164 69.827 97.6005C70.144 97.6956 70.461 97.7828 70.778 97.7828C70.881 97.7828 70.9761 97.7828 71.087 97.767C71.4199 97.9572 71.8082 97.9809 72.1568 97.9809C72.4104 97.9809 72.6561 97.973 72.87 97.973C72.981 97.973 73.084 97.973 73.1633 97.9809H73.195C73.195 97.9809 73.2821 97.9651 73.3217 97.9492C73.615 98.0919 73.9716 98.179 74.3282 98.179H74.3519C74.9621 98.179 77.9497 97.0617 78.5916 96.61C78.9878 96.507 79.4078 96.2455 79.4078 96.2455C80.0814 96.3168 80.3983 96.1107 81.2463 96.19C81.27 96.1424 81.4523 96.2772 81.4761 96.2296C81.698 96.507 81.8882 96.4594 82.221 96.4594C82.2606 96.4594 82.3002 96.4357 82.3399 96.4357C82.3953 96.4832 82.4666 96.5149 82.5459 96.5149H82.6251C82.8312 96.5149 83.0214 96.4832 83.164 96.4357C83.4255 96.6655 83.79 96.7606 84.115 96.7606H84.3289V96.7368C84.5587 96.824 84.7806 96.8794 85.0184 96.8794C85.2165 96.8794 85.4146 96.8477 85.6048 96.7606C85.6048 96.7606 85.6285 96.7764 85.6365 96.7764C85.6365 96.7764 88.3625 96.5307 90.1534 96.6417C90.1534 96.5624 90.1534 96.507 90.1534 96.4357C90.6368 96.6892 91.0568 96.8715 91.4214 97.1726C91.461 97.2043 91.5085 97.2122 91.564 97.2202C91.9682 97.8858 92.5784 98.5673 93.3708 99.0111C93.3708 99.0745 93.4104 99.1221 93.4342 99.1617C93.6244 100.033 93.9889 100.818 94.1474 101.602C94.0761 101.602 94.0365 101.587 93.9493 101.579C93.2044 106.999 100.519 106.032 103.34 104.202C103.91 103.988 108.38 101.515 108.388 101.515C109.053 101.198 109.196 100.366 109.212 100.398C111.859 98.0047 104.212 94.399 102.761 97.2281M72.3153 47.367C72.3153 47.367 74.7006 48.1674 75.0255 48.3021C75.3504 48.4368 83.5048 53.4847 83.5048 53.4847L87.3165 58.3821L87.5859 59.8164L83.4255 55.8938L78.0448 53.1123L70.5878 49.6809L72.3074 47.3749L72.3153 47.367ZM68.0757 38.127C68.2421 38.1904 73.0365 38.7372 73.0365 38.7372C73.0365 38.7372 74.3757 39.4028 75.9844 40.1953C78.4251 41.3998 80.7866 42.5726 80.7866 42.5726L86.1199 46.1704L84.9153 46.1149L78.338 43.0006L83.8059 49.5542L79.2731 48.1436L73.924 43.6821L75.1127 42.4696L68.0836 38.127H68.0757ZM70.4927 36.9304C70.4927 36.9304 71.5863 35.3851 72.4342 34.7194C73.2108 34.1093 74.1776 33.5545 74.3678 33.4991C74.7799 33.3802 77.2602 33.1583 77.5217 33.301C77.7833 33.4515 80.0893 34.6323 80.1131 35.0998L80.1606 35.9636L78.1874 36.9779L78.1319 35.4881L74.138 35.6862L70.4927 36.9304ZM85.6127 42.5093C85.6127 42.5093 88.0138 42.4617 88.3704 42.1923C88.727 41.9228 89.995 42.7628 89.995 42.7628L89.9474 43.8168L89.8127 45.2036L88.4021 45.8693L85.058 43.6187L85.6127 42.5172V42.5093ZM87.3165 56.813C87.6493 56.7417 89.0282 56.2583 89.2659 56.3217C89.5036 56.3772 91.2074 57.2013 91.2074 57.2013L92.1742 59.2617L92.2138 61.4172L90.5814 58.5485C90.5814 58.5485 88.6716 58.1523 88.6082 58.0413C88.5448 57.9383 87.3165 56.813 87.3165 56.813ZM90.9221 64.3889L94.0602 64.5474L95.0746 64.373L95.9066 64.3889L95.1776 65.5696L96.9368 66.1798L97.8482 66.7425L98.4742 67.0753L98.4346 67.6458L97.3885 67.0515L96.3663 66.7187L95.6451 66.7028L95.7957 67.6934L96.0097 68.7474L95.8829 70.0074L94.9716 70.8315L93.7512 69.8251L92.7131 68.6206L90.938 67.733L88.6716 66.7266L89.1233 65.4111L90.9221 64.3968V64.3889ZM76.1033 73.7557L77.1651 79.2949L81.7614 81.9813C81.7614 81.9813 86.8251 82.5202 87.5859 82.0526C88.3466 81.5851 93.1648 77.7179 93.1648 77.7179L95.1142 72.884L93.664 72.4798L91.8731 71.0692L89.5274 75.1424L87.9266 74.9126L85.7157 73.7953L82.9897 72.0994L81.2384 72.6938L76.0953 73.7557H76.1033ZM92.8557 82.3458L94.504 86.1258L95.5897 91.0866L94.7338 91.7998L89.9395 91.7126L86.2308 89.8741L88.2991 85.7296L92.3327 83.2017L92.8557 82.33V82.3458ZM92.9349 94.8032L94.9636 94.2326L96.081 97.236L98.1731 99.5104L100.138 99.756L97.5629 101.071L94.4565 96.8557L92.5466 96.087L92.9349 94.8032ZM74.4233 79.6832L76.1746 83.8198L77.5931 85.2938L81.8168 86.8628L75.5406 91.2926L70.7701 92.7824L66.2927 93.1945L66.6731 94.7715L67.9489 96.1741L63.5191 95.8255L61.9342 93.6304L65.1912 88.1228L73.615 76.8383L74.4391 79.6991L74.4233 79.6832ZM83.8455 87.3858L76.6184 94.3832L71.61 96.2851C71.61 96.2851 74.7006 96.3009 75.0572 96.3009C75.4138 96.3009 79.3285 94.6685 79.3285 94.6685L86.2704 85.904L83.8455 87.3779V87.3858ZM70.0093 62.8198L76.1983 67.6141L80.8897 70.1262L76.0319 71.3783L72.3312 65.9342L70.0172 62.8119L70.0093 62.8198ZM69.3516 51.8998L76.0319 54.6813L79.3999 58.0175L85.4621 61.5598L90.1059 63.5251C90.1059 63.5251 88.2436 64.0006 87.8791 64.9515C87.5146 65.9025 86.3338 68.2085 86.3338 68.2085L86.7063 71.7983L82.4508 67.2258L80.1606 65.1021L78.5044 62.5741L73.5595 56.6942L69.0108 53.0013L69.3357 51.8998H69.3516ZM80.6678 36.8908L78.4727 38.1111L77.3078 39.1255L82.3161 42.3032L83.1323 39.6168L82.5221 39.0859L80.5965 38.3806L80.6757 36.8828L80.6678 36.8908ZM83.8851 91.673L85.4146 94.0107L88.1565 95.0726L88.2753 95.4372L85.1848 95.5164L83.8693 94.613L83.8851 91.6651V91.673ZM95.4629 83.8674L98.7595 87.9723L97.8244 90.5319L95.4629 83.8753V83.8674ZM101.319 101.816L102.286 102.902L102.928 102.633L103.451 102.252C103.181 101.967 102.769 101.523 102.468 101.19C102.159 101.428 101.906 101.602 101.834 101.642C101.795 101.666 101.604 101.729 101.319 101.816ZM99.7817 103.924C99.5757 103.496 99.2983 102.902 99.0923 102.49C99.5519 102.355 100.012 102.221 100.424 102.094C100.653 102.49 100.947 102.997 101.153 103.378C100.646 103.584 100.138 103.79 99.7817 103.924ZM98.1176 102.775L98.6961 104.162C98.0066 104.233 97.0636 104.305 97.0636 104.305L96.4059 103.267C96.4059 103.267 97.1666 103.045 98.1176 102.767V102.775ZM61.5142 101.349L60.9991 102.807L60.2938 102.411L60.4999 100.715C60.6504 100.897 61.015 101.119 61.5142 101.349ZM63.9787 102.3L63.4953 104.218L61.9263 103.33C62.0927 102.894 62.3384 102.252 62.5048 101.769C62.9723 101.951 63.4795 102.133 63.9708 102.3H63.9787ZM70.4451 104.471C70.1757 103.821 69.8429 102.831 69.6448 102.221L70.4768 101.935L71.8161 102.015L71.9508 104.281L70.4451 104.471ZM67.4101 104.851C67.4259 104.289 67.4734 103.488 67.4893 102.95L68.6542 102.553L69.2565 104.614L67.4101 104.844V104.851ZM66.3165 103.037L66.1025 104.725L64.7791 104.495C64.8584 103.964 65.001 103.203 65.0802 102.656C65.5716 102.815 65.9995 102.942 66.3085 103.037H66.3165ZM105.559 100.715L104.085 99.2013C103.998 99.439 103.934 99.6292 103.926 99.7402C103.902 99.9304 103.57 100.279 103.173 100.628L104.322 101.618L105.559 100.715ZM104.473 98.2583L106.256 100.2L106.732 99.8511L106.771 98.1473L104.917 97.2677C104.917 97.2677 104.735 97.6323 104.473 98.2504V98.2583ZM62.9168 98.1077L61.7282 99.7639L64.4146 100.548L65.1595 97.7273L62.9168 98.1077Z" fill="white"/>
</svg>
